<?xml version="1.0" standalone="no"?>
<!DOCTYPE svg PUBLIC "-//W3C//DTD SVG 20010904//EN"
 "http://www.w3.org/TR/2001/REC-SVG-20010904/DTD/svg10.dtd">
<svg version="1.0" xmlns="http://www.w3.org/2000/svg"
 width="300.000000pt" height="150.000000pt" viewBox="0 0 300.000000 150.000000"
 preserveAspectRatio="xMidYMid meet">
<metadata>
Created by potrace 1.10, written by Peter Selinger 2001-2011
</metadata>
<g transform="translate(0.000000,150.000000) scale(0.100000,-0.100000)"
fill="#000000" stroke="none">
<path d="M1553 1033 c-51 -109 -148 -318 -217 -465 l-125 -268 53 0 52 0 164
353 c90 193 187 403 216 465 l53 112 -52 0 -53 0 -91 -197z"/>
<path d="M802 916 l-282 -111 2 -49 3 -48 285 -114 c157 -62 286 -114 288
-114 2 0 2 23 0 51 l-3 52 -225 83 c-124 46 -229 85 -233 86 -5 2 62 30 150
62 87 32 193 72 236 88 l77 30 0 49 c0 27 -3 48 -7 48 -5 -1 -135 -51 -291
-113z m-181 -140 c-7 -8 -10 -24 -6 -36 7 -22 -5 -26 -36 -10 -29 16 -23 39
14 55 36 15 45 12 28 -9z"/>
<path d="M1890 981 l0 -49 236 -88 c173 -64 231 -90 218 -96 -11 -4 -116 -43
-234 -87 l-215 -80 -3 -52 c-2 -39 0 -50 10 -46 7 3 140 55 294 117 l281 111
-1 45 -1 45 -289 114 c-159 63 -291 115 -293 115 -2 0 -3 -22 -3 -49z m521
-201 c10 -6 19 -17 19 -25 0 -14 -29 -35 -47 -35 -5 0 -9 16 -9 35 0 37 6 41
37 25z"/>
</g>
</svg>
